<?xml version="1.0" encoding="UTF-8" standalone="no"?>
<svg
   width="720.44"
   height="718.635"
   viewBox="0 0 720.44 718.635"
   role="img"
   artist="Katerina Limpitsouni"
   source="https://undraw.co/"
   version="1.1"
   id="svg30"
   sodipodi:docname="zaps.svg"
   xml:space="preserve"
   inkscape:version="1.4.2 (ebf0e940, 2025-05-08)"
   xmlns:inkscape="http://www.inkscape.org/namespaces/inkscape"
   xmlns:sodipodi="http://sodipodi.sourceforge.net/DTD/sodipodi-0.dtd"
   xmlns="http://www.w3.org/2000/svg"
   xmlns:svg="http://www.w3.org/2000/svg"><defs
     id="defs30" /><sodipodi:namedview
     id="namedview30"
     pagecolor="#ffffff"
     bordercolor="#000000"
     borderopacity="0.25"
     inkscape:showpageshadow="2"
     inkscape:pageopacity="0.0"
     inkscape:pagecheckerboard="0"
     inkscape:deskcolor="#d1d1d1"
     inkscape:zoom="2.6746164"
     inkscape:cx="38.510195"
     inkscape:cy="485.67712"
     inkscape:window-width="3840"
     inkscape:window-height="1027"
     inkscape:window-x="0"
     inkscape:window-y="25"
     inkscape:window-maximized="0"
     inkscape:current-layer="g27" /><g
     transform="translate(-600 -181)"
     id="g30"><g
       transform="translate(783.85 181)"
       id="g2"><path
         d="M624.7,249.968h-3.952V141.8a62.6,62.6,0,0,0-62.6-62.6H328.97a62.6,62.6,0,0,0-62.6,62.6V735.225a62.6,62.6,0,0,0,62.6,62.6H558.143a62.6,62.6,0,0,0,62.6-62.6V326.965H624.7Z"
         transform="translate(-266.365 -79.193)"
         fill="#090814"
         id="path1" /><path
         d="M560.888,95.686H530.974a22.212,22.212,0,0,1-20.565,30.6h-131.3a22.212,22.212,0,0,1-20.566-30.6H330.607a46.752,46.752,0,0,0-46.752,46.752V735a46.752,46.752,0,0,0,46.752,46.752H560.879A46.752,46.752,0,0,0,607.63,735V142.439a46.752,46.752,0,0,0-46.744-46.752Z"
         transform="translate(-266.577 -79.397)"
         fill="#fff"
         id="path2" /></g><path
       d="M8,0H256a8,8,0,0,1,8,8V72a8,8,0,0,1-8,8H8a8,8,0,0,1-8-8V8A8,8,0,0,1,8,0Z"
       transform="translate(828 265)"
       fill="#f2f2f2"
       id="path3" /><path
       d="M8,0H256a8.065,8.065,0,0,1,8,8.128V475.474a8.065,8.065,0,0,1-8,8.128H8a8.065,8.065,0,0,1-8-8.128V8.128A8.065,8.065,0,0,1,8,0Z"
       transform="translate(828 358.398)"
       fill="#f2f2f2"
       id="path4" /><g
       transform="translate(623.104 296.398)"
       id="g9"><rect
         width="278.304"
         height="69.313"
         rx="16"
         transform="translate(0 0)"
         fill="#090814"
         id="rect4" /><rect
         width="272.003"
         height="63.012"
         rx="15"
         transform="translate(3.151 3.151)"
         fill="#fff"
         id="rect5" /><path
         d="M301.207,370.636a2.238,2.238,0,0,1-1.791-.9l-5.489-7.318a2.238,2.238,0,0,1,3.581-2.686l3.591,4.788,9.223-13.834a2.238,2.238,0,0,1,3.725,2.483L303.07,369.639a2.239,2.239,0,0,1-1.8,1Z"
         transform="translate(-53.047 -325.676)"
         fill="#6c63ff"
         id="path5" /><g
         transform="translate(17.038 13.546)"
         id="g7"><path
           d="M8.377,0H33.509a8.377,8.377,0,0,1,8.377,8.377V33.509a8.377,8.377,0,0,1-8.377,8.377H8.377A8.377,8.377,0,0,1,0,33.509V8.377A8.377,8.377,0,0,1,8.377,0Z"
           transform="translate(0 0)"
           fill="#6c63ff"
           id="path6" /><path
           fill="#ffffff"
           d="m 29.707386,18.657657 c 0.366641,-2.450824 -1.499389,-3.768325 -4.05094,-4.647244 l 0.827682,-3.319949 -2.020864,-0.503633 -0.805812,3.232462 C 23.126191,13.286911 22.580541,13.16201 22.038338,13.038257 L 22.849909,9.7844991 20.830193,9.2808662 20.001937,12.599667 c -0.439747,-0.100152 -0.87143,-0.199148 -1.290455,-0.303328 l 0.0023,-0.0104 -2.786965,-0.695882 -0.537594,2.158431 c 0,0 1.49939,0.343622 1.467733,0.364918 0.818479,0.204332 0.966398,0.745954 0.941649,1.17534 l -0.942797,3.782139 c 0.05642,0.01436 0.129503,0.03508 0.210083,0.06736 -0.06736,-0.01669 -0.13929,-0.03516 -0.213537,-0.05293 l -1.321536,5.29823 c -0.100152,0.248646 -0.353983,0.621627 -0.926112,0.480032 0.02018,0.02934 -1.468882,-0.366648 -1.468882,-0.366648 l -1.003261,2.313258 2.629833,0.65558 c 0.489237,0.122604 0.968703,0.250959 1.44068,0.371832 l -0.83632,3.357938 2.018559,0.503633 0.828264,-3.322254 c 0.551408,0.14965 1.086697,0.287791 1.610477,0.417869 l -0.825385,3.306717 2.020864,0.503632 0.83632,-3.351612 c 3.446006,0.652134 6.037269,0.3891 7.127993,-2.727673 0.878911,-2.509534 -0.04377,-3.957121 -1.856825,-4.901074 1.320388,-0.304485 2.314988,-1.173035 2.580335,-2.967123 z m -4.61731,6.474711 c -0.624507,2.509534 -4.849846,1.152888 -6.219732,0.812719 l 1.109723,-4.448662 c 1.369878,0.341891 5.762717,1.018775 5.110009,3.635943 z m 0.62508,-6.510969 c -0.569824,2.28275 -4.086632,1.122955 -5.227429,0.838617 l 1.006118,-4.034821 c 1.140796,0.284338 4.814736,0.815024 4.221311,3.196204 z"
           id="path2-8-2"
           style="stroke-width:0.575581" /></g><path
         d="M6.981,0h125.66a6.981,6.981,0,1,1,0,13.962H6.981A6.981,6.981,0,0,1,6.981,0Z"
         transform="translate(72.886 17.036)"
         fill="#e6e6e6"
         id="path8" /><path
         d="M6.981,0H76.792a6.981,6.981,0,1,1,0,13.962H6.981A6.981,6.981,0,0,1,6.981,0Z"
         transform="translate(72.886 37.98)"
         fill="#e6e6e6"
         id="path9" /></g><g
       transform="translate(1003.278 402.469)"
       id="g14"><rect
         width="279.354"
         height="69.313"
         rx="16"
         transform="translate(0 0)"
         fill="#090814"
         id="rect9" /><rect
         width="272.003"
         height="63.012"
         rx="15"
         transform="translate(3.151 3.151)"
         fill="#fff"
         id="rect10" /><path
         d="M301.207,370.636a2.238,2.238,0,0,1-1.791-.9l-5.489-7.318a2.238,2.238,0,0,1,3.581-2.686l3.591,4.788,9.223-13.834a2.238,2.238,0,0,1,3.725,2.483L303.07,369.639a2.239,2.239,0,0,1-1.8,1Z"
         transform="translate(-52.751 -325.287)"
         fill="#6c63ff"
         id="path10" /><g
         transform="translate(17.334 13.936)"
         id="g12"><path
           d="M8.377,0H33.509a8.377,8.377,0,0,1,8.377,8.377V33.509a8.377,8.377,0,0,1-8.377,8.377H8.377A8.377,8.377,0,0,1,0,33.509V8.377A8.377,8.377,0,0,1,8.377,0Z"
           transform="translate(0 0)"
           fill="#6c63ff"
           id="path11" /><path
           fill="#ffffff"
           d="m 29.707386,18.657657 c 0.366641,-2.450824 -1.499389,-3.768325 -4.05094,-4.647244 l 0.827682,-3.319949 -2.020864,-0.503633 -0.805812,3.232462 C 23.126191,13.286911 22.580541,13.16201 22.038338,13.038257 l 0.811571,-3.253758 -2.019716,-0.503633 -0.828256,3.318801 c -0.439747,-0.100152 -0.87143,-0.199148 -1.290455,-0.303328 l 0.0023,-0.0104 -2.786965,-0.695882 -0.537594,2.158431 c 0,0 1.49939,0.343622 1.467733,0.364918 0.818479,0.204332 0.966398,0.745954 0.941649,1.17534 l -0.942797,3.782139 c 0.05642,0.01436 0.129503,0.03508 0.210083,0.06736 -0.06736,-0.01669 -0.13929,-0.03516 -0.213537,-0.05293 l -1.321536,5.29823 c -0.100152,0.248646 -0.353983,0.621627 -0.926112,0.480032 0.02018,0.02934 -1.468882,-0.366648 -1.468882,-0.366648 l -1.003261,2.313258 2.629833,0.65558 c 0.489237,0.122604 0.968703,0.250959 1.44068,0.371832 l -0.83632,3.357938 2.018559,0.503633 0.828264,-3.322254 c 0.551408,0.14965 1.086697,0.287791 1.610477,0.417869 l -0.825385,3.306717 2.020864,0.503632 0.83632,-3.351612 c 3.446006,0.652134 6.037269,0.3891 7.127993,-2.727673 0.878911,-2.509534 -0.04377,-3.957121 -1.856825,-4.901074 1.320388,-0.304485 2.314988,-1.173035 2.580335,-2.967123 z m -4.61731,6.474711 c -0.624507,2.509534 -4.849846,1.152888 -6.219732,0.812719 l 1.109723,-4.448662 c 1.369878,0.341891 5.762717,1.018775 5.110009,3.635943 z m 0.62508,-6.510969 c -0.569824,2.28275 -4.086632,1.122955 -5.227429,0.838617 l 1.006118,-4.034821 c 1.140796,0.284338 4.814736,0.815024 4.221311,3.196204 z"
           id="path2-8-2-7"
           style="stroke-width:0.575581" /></g><path
         d="M6.981,0h125.66a6.981,6.981,0,1,1,0,13.962H6.981A6.981,6.981,0,0,1,6.981,0Z"
         transform="translate(73.181 17.426)"
         fill="#e6e6e6"
         id="path13" /><path
         d="M6.981,0H76.792a6.981,6.981,0,1,1,0,13.962H6.981A6.981,6.981,0,0,1,6.981,0Z"
         transform="translate(73.181 38.369)"
         fill="#e6e6e6"
         id="path14" /></g><g
       transform="translate(663.012 510.639)"
       id="g19"><rect
         width="279.354"
         height="69.313"
         rx="16"
         transform="translate(0 0)"
         fill="#090814"
         id="rect14" /><rect
         width="272.003"
         height="63.012"
         rx="15"
         transform="translate(3.151 3.151)"
         fill="#fff"
         id="rect15" /><path
         d="M301.207,370.636a2.238,2.238,0,0,1-1.791-.9l-5.489-7.318a2.238,2.238,0,0,1,3.581-2.686l3.591,4.788,9.223-13.834a2.238,2.238,0,0,1,3.725,2.483L303.07,369.639a2.239,2.239,0,0,1-1.8,1Z"
         transform="translate(-52.814 -325.25)"
         fill="#6c63ff"
         id="path15" /><g
         transform="translate(17.272 13.972)"
         id="g17"><path
           d="M8.377,0H33.509a8.377,8.377,0,0,1,8.377,8.377V33.509a8.377,8.377,0,0,1-8.377,8.377H8.377A8.377,8.377,0,0,1,0,33.509V8.377A8.377,8.377,0,0,1,8.377,0Z"
           transform="translate(0 0)"
           fill="#6c63ff"
           id="path16" /><path
           fill="#ffffff"
           d="m 29.707386,18.657657 c 0.366641,-2.450824 -1.499389,-3.768325 -4.05094,-4.647244 l 0.827682,-3.319949 -2.020864,-0.503633 -0.805812,3.232462 C 23.126191,13.286911 22.580541,13.16201 22.038338,13.038257 L 22.849909,9.784499 20.830193,9.2808661 20.001937,12.599667 c -0.439747,-0.100152 -0.87143,-0.199148 -1.290455,-0.303328 l 0.0023,-0.0104 -2.786965,-0.695882 -0.537594,2.158431 c 0,0 1.49939,0.343622 1.467733,0.364918 0.818479,0.204332 0.966398,0.745954 0.941649,1.17534 l -0.942797,3.782139 c 0.05642,0.01436 0.129503,0.03508 0.210083,0.06736 -0.06736,-0.01669 -0.13929,-0.03516 -0.213537,-0.05293 l -1.321536,5.29823 c -0.100152,0.248646 -0.353983,0.621627 -0.926112,0.480032 0.02018,0.02934 -1.468882,-0.366648 -1.468882,-0.366648 l -1.003261,2.313258 2.629833,0.65558 c 0.489237,0.122604 0.968703,0.250959 1.44068,0.371832 l -0.83632,3.357938 2.018559,0.503633 0.828264,-3.322254 c 0.551408,0.14965 1.086697,0.287791 1.610477,0.417869 l -0.825385,3.306717 2.020864,0.503632 0.83632,-3.351612 c 3.446006,0.652134 6.037269,0.3891 7.127993,-2.727673 0.878911,-2.509534 -0.04377,-3.957121 -1.856825,-4.901074 1.320388,-0.304485 2.314988,-1.173035 2.580335,-2.967123 z m -4.61731,6.474711 c -0.624507,2.509534 -4.849846,1.152888 -6.219732,0.812719 l 1.109723,-4.448662 c 1.369878,0.341891 5.762717,1.018775 5.110009,3.635943 z m 0.62508,-6.510969 c -0.569824,2.28275 -4.086632,1.122955 -5.227429,0.838617 l 1.006118,-4.034821 c 1.140796,0.284338 4.814736,0.815024 4.221311,3.196204 z"
           id="path2-8-2-0"
           style="stroke-width:0.575581" /></g><path
         d="M6.981,0h125.66a6.981,6.981,0,1,1,0,13.962H6.981A6.981,6.981,0,0,1,6.981,0Z"
         transform="translate(73.119 17.463)"
         fill="#e6e6e6"
         id="path18" /><path
         d="M6.981,0H76.792a6.981,6.981,0,1,1,0,13.962H6.981A6.981,6.981,0,0,1,6.981,0Z"
         transform="translate(73.119 38.406)"
         fill="#e6e6e6"
         id="path19" /></g><g
       transform="translate(1041.086 616.711)"
       id="g24"><rect
         width="279.354"
         height="70.364"
         rx="16"
         transform="translate(0 0)"
         fill="#090814"
         id="rect19" /><rect
         width="272.003"
         height="63.012"
         rx="15"
         transform="translate(4.201 4.201)"
         fill="#fff"
         id="rect20" /><path
         d="M301.207,370.636a2.238,2.238,0,0,1-1.791-.9l-5.489-7.318a2.238,2.238,0,0,1,3.581-2.686l3.591,4.788,9.223-13.834a2.238,2.238,0,0,1,3.725,2.483L303.07,369.639a2.239,2.239,0,0,1-1.8,1Z"
         transform="translate(-52.163 -324.86)"
         fill="#6c63ff"
         id="path20" /><g
         transform="translate(17.922 14.362)"
         id="g22"><path
           d="M8.377,0H33.509a8.377,8.377,0,0,1,8.377,8.377V33.509a8.377,8.377,0,0,1-8.377,8.377H8.377A8.377,8.377,0,0,1,0,33.509V8.377A8.377,8.377,0,0,1,8.377,0Z"
           transform="translate(0 0)"
           fill="#6c63ff"
           id="path21" /><path
           fill="#ffffff"
           d="m 29.707386,18.657657 c 0.366641,-2.450824 -1.499389,-3.768325 -4.05094,-4.647244 l 0.827682,-3.319949 -2.020864,-0.503633 -0.805812,3.232462 C 23.126191,13.286911 22.580541,13.16201 22.038338,13.038257 L 22.849909,9.784499 20.830193,9.2808661 20.001937,12.599667 c -0.439747,-0.100152 -0.87143,-0.199148 -1.290455,-0.303328 l 0.0023,-0.0104 -2.786965,-0.695882 -0.537594,2.158431 c 0,0 1.49939,0.343622 1.467733,0.364918 0.818479,0.204332 0.966398,0.745954 0.941649,1.17534 l -0.942797,3.782139 c 0.05642,0.01436 0.129503,0.03508 0.210083,0.06736 -0.06736,-0.01669 -0.13929,-0.03516 -0.213537,-0.05293 l -1.321536,5.29823 c -0.100152,0.248646 -0.353983,0.621627 -0.926112,0.480032 0.02018,0.02934 -1.468882,-0.366648 -1.468882,-0.366648 l -1.003261,2.313258 2.629833,0.65558 c 0.489237,0.122604 0.968703,0.250959 1.44068,0.371832 l -0.83632,3.357938 2.018559,0.503633 0.828264,-3.322254 c 0.551408,0.14965 1.086697,0.287791 1.610477,0.417869 l -0.825385,3.306717 2.020864,0.503632 0.83632,-3.351612 c 3.446006,0.652134 6.037269,0.3891 7.127993,-2.727673 0.878911,-2.509534 -0.04377,-3.957121 -1.856825,-4.901074 1.320388,-0.304485 2.314988,-1.173035 2.580335,-2.967123 z m -4.61731,6.474711 c -0.624507,2.509534 -4.849846,1.152888 -6.219732,0.812719 l 1.109723,-4.448662 c 1.369878,0.341891 5.762717,1.018775 5.110009,3.635943 z m 0.62508,-6.510969 c -0.569824,2.28275 -4.086632,1.122955 -5.227429,0.838617 l 1.006118,-4.034821 c 1.140796,0.284338 4.814736,0.815024 4.221311,3.196204 z"
           id="path2-8-2-9"
           style="stroke-width:0.575581" /></g><path
         d="M6.981,0h125.66a6.981,6.981,0,1,1,0,13.962H6.981A6.981,6.981,0,0,1,6.981,0Z"
         transform="translate(73.77 17.853)"
         fill="#e6e6e6"
         id="path23" /><path
         d="M6.981,0H76.792a6.981,6.981,0,1,1,0,13.962H6.981A6.981,6.981,0,0,1,6.981,0Z"
         transform="translate(73.77 38.796)"
         fill="#e6e6e6"
         id="path24" /></g><g
       transform="translate(600 723.832)"
       id="g29"><rect
         width="279.354"
         height="69.313"
         rx="16"
         transform="translate(0 0)"
         fill="#090814"
         id="rect24" /><rect
         width="273.053"
         height="63.012"
         rx="15"
         transform="translate(3.151 3.151)"
         fill="#fff"
         id="rect25" /><path
         d="M301.207,370.636a2.238,2.238,0,0,1-1.791-.9l-5.489-7.318a2.238,2.238,0,0,1,3.581-2.686l3.591,4.788,9.223-13.834a2.238,2.238,0,0,1,3.725,2.483L303.07,369.639a2.239,2.239,0,0,1-1.8,1Z"
         transform="translate(-52.631 -325.518)"
         fill="#6c63ff"
         id="path25" /><g
         transform="translate(17.454 13.704)"
         id="g27"><path
           d="M8.377,0H33.509a8.377,8.377,0,0,1,8.377,8.377V33.509a8.377,8.377,0,0,1-8.377,8.377H8.377A8.377,8.377,0,0,1,0,33.509V8.377A8.377,8.377,0,0,1,8.377,0Z"
           transform="translate(0 0)"
           fill="#6c63ff"
           id="path26" /><path
           fill="#ffffff"
           d="m 29.707386,18.657657 c 0.366641,-2.450824 -1.499389,-3.768325 -4.05094,-4.647244 l 0.827682,-3.319949 -2.020864,-0.503633 -0.805812,3.232462 C 23.126191,13.286911 22.580541,13.16201 22.038338,13.038257 l 0.811571,-3.253758 -2.019716,-0.503633 -0.828256,3.318801 c -0.439747,-0.100152 -0.87143,-0.199148 -1.290455,-0.303328 l 0.0023,-0.0104 -2.786965,-0.695882 -0.537594,2.158431 c 0,0 1.49939,0.343622 1.467733,0.364918 0.818479,0.204332 0.966398,0.745954 0.941649,1.17534 l -0.942797,3.782139 c 0.05642,0.01436 0.129503,0.03508 0.210083,0.06736 -0.06736,-0.01669 -0.13929,-0.03516 -0.213537,-0.05293 l -1.321536,5.29823 c -0.100152,0.248646 -0.353983,0.621627 -0.926112,0.480032 0.02018,0.02934 -1.468882,-0.366648 -1.468882,-0.366648 l -1.003261,2.313258 2.629833,0.65558 c 0.489237,0.122604 0.968703,0.250959 1.44068,0.371832 l -0.83632,3.357938 2.018559,0.503633 0.828264,-3.322254 c 0.551408,0.14965 1.086697,0.287791 1.610477,0.417869 l -0.825385,3.306717 2.020864,0.503632 0.83632,-3.351612 c 3.446006,0.652134 6.037269,0.3891 7.127993,-2.727673 0.878911,-2.509534 -0.04377,-3.957121 -1.856825,-4.901074 1.320388,-0.304485 2.314988,-1.173035 2.580335,-2.967123 z m -4.61731,6.474711 c -0.624507,2.509534 -4.849846,1.152888 -6.219732,0.812719 l 1.109723,-4.448662 c 1.369878,0.341891 5.762717,1.018775 5.110009,3.635943 z m 0.62508,-6.510969 c -0.569824,2.28275 -4.086632,1.122955 -5.227429,0.838617 l 1.006118,-4.034821 c 1.140796,0.284338 4.814736,0.815024 4.221311,3.196204 z"
           id="path2-8-2-98"
           style="stroke-width:0.575581" /></g><path
         d="M6.981,0h125.66a6.981,6.981,0,1,1,0,13.962H6.981A6.981,6.981,0,0,1,6.981,0Z"
         transform="translate(73.301 17.194)"
         fill="#e6e6e6"
         id="path28" /><path
         d="M6.981,0H76.792a6.981,6.981,0,1,1,0,13.962H6.981A6.981,6.981,0,0,1,6.981,0Z"
         transform="translate(73.301 38.138)"
         fill="#e6e6e6"
         id="path29" /></g></g></svg>
